<svg width="40" height="40" viewBox="0 0 40 40" fill="none" xmlns="http://www.w3.org/2000/svg">
<path d="M8 0.5H32C36.1421 0.5 39.5 3.85786 39.5 8V32C39.5 36.1421 36.1421 39.5 32 39.5H8C3.85786 39.5 0.5 36.1421 0.5 32V8C0.5 3.85786 3.85786 0.5 8 0.5Z" stroke="#D9D9D9"/>
<path d="M23.5303 12.2197C23.8232 12.5126 23.8232 12.9874 23.5303 13.2803L16.8107 20L23.5303 26.7197C23.8232 27.0126 23.8232 27.4874 23.5303 27.7803C23.2374 28.0732 22.7626 28.0732 22.4697 27.7803L15.2197 20.5303C14.9268 20.2374 14.9268 19.7626 15.2197 19.4697L22.4697 12.2197C22.7626 11.9268 23.2374 11.9268 23.5303 12.2197Z" fill="#1D1D1F"/>
</svg>
