<svg width="40" height="40" viewBox="0 0 40 40" fill="none" xmlns="http://www.w3.org/2000/svg">
<rect width="40" height="40" rx="20" fill="#F7F7F7"/>
<g opacity="0.7">
<path d="M15.9394 12.182L12.682 15.4394C12.0962 16.0252 12.0962 16.9749 12.682 17.5607L16.6056 21.4842C16.3032 21.9255 16.1003 22.4482 16.0287 23.0287L11.6214 18.6214C10.4498 17.4498 10.4498 15.5503 11.6214 14.3787L14.8787 11.1214C16.0503 9.94978 17.9498 9.94978 19.1214 11.1214L22.5666 14.5666C22.4917 14.6249 22.4203 14.6868 22.3526 14.7518C22.3186 14.7506 22.2844 14.75 22.25 14.75C21.753 14.75 21.316 14.8679 20.9452 15.0666L18.0607 12.182C17.4749 11.5962 16.5252 11.5962 15.9394 12.182ZM22.7649 15.822C22.6063 15.7755 22.4343 15.75 22.25 15.75C21.1539 15.75 20.5044 16.6505 20.5044 17.5V21.1729C20.2123 21.0716 19.8736 21.0006 19.4965 21.0006C18.0985 21.0006 17 22.0316 17 23.5C17 23.742 17.1167 23.9691 17.3135 24.1099L19.0307 25.3389L19.9854 26.1713C20.6241 26.7283 21.1979 27.3556 21.6957 28.0414L22.2941 28.8656C22.8115 29.5782 23.6389 30 24.5195 30H26.1582C27.0893 30 27.982 29.527 28.4632 28.6887C28.7653 28.1624 29.1392 27.471 29.4399 26.7866C29.7259 26.1356 30 25.3739 30 24.75V18.75C30 17.8959 29.3419 17 28.25 17C28.14 17 28.0345 17.0091 27.9335 17.0263C27.7412 16.3445 27.1407 15.75 26.25 15.75C26.0677 15.75 25.8955 15.7757 25.7356 15.8228C25.4469 15.3509 24.9332 15 24.25 15C23.5672 15 23.0536 15.3505 22.7649 15.822ZM24.4308 16.5704C24.474 16.6172 24.5 16.6847 24.5 16.7484V17.4136C24.499 17.4468 24.499 17.48 24.5 17.5133V21.25C24.5 21.6642 24.8358 22 25.25 22C25.6642 22 26 21.6642 26 21.25V17.4484C26.0037 17.4116 26.0212 17.3652 26.0585 17.3252C26.096 17.2849 26.1543 17.25 26.25 17.25C26.3453 17.25 26.3967 17.283 26.4308 17.32C26.4734 17.3664 26.5 17.4343 26.5 17.5002V21.7506C26.5 22.1648 26.8358 22.5006 27.25 22.5006C27.6642 22.5006 28 22.1648 28 21.7506V18.75C28 18.685 28.0264 18.6171 28.0694 18.5703C28.104 18.5328 28.1556 18.5 28.25 18.5C28.3444 18.5 28.396 18.5328 28.4306 18.5703C28.4736 18.6171 28.5 18.685 28.5 18.75V24.75C28.5 25.0296 28.3513 25.5352 28.0665 26.1833C27.7964 26.7982 27.4518 27.4376 27.1623 27.9419C26.966 28.2839 26.5881 28.5 26.1582 28.5H24.5195C24.1192 28.5 23.7431 28.3083 23.508 27.9844L22.9096 27.1601C22.3453 26.3829 21.6951 25.672 20.9712 25.0408L19.9894 24.1847C19.9713 24.169 19.9525 24.1541 19.933 24.1401L18.5495 23.1499C18.6743 22.7419 19.0256 22.5006 19.4965 22.5006C20.1334 22.5006 20.586 22.9004 20.7383 23.035C20.7503 23.0455 20.7603 23.0544 20.7685 23.0614C20.9913 23.2508 21.3037 23.2935 21.5691 23.1708C21.8345 23.0481 22.0044 22.7824 22.0044 22.49V17.5C22.0044 17.4326 22.0313 17.3644 22.0732 17.3185C22.1063 17.2824 22.1561 17.25 22.25 17.25C22.3453 17.25 22.3969 17.283 22.4309 17.3199C22.4733 17.3659 22.5 17.4335 22.5 17.5V21.25C22.5 21.6642 22.8358 22 23.25 22C23.6642 22 24 21.6642 24 21.25V16.7484C24 16.6847 24.026 16.6172 24.0692 16.5704C24.1038 16.5328 24.1556 16.5 24.25 16.5C24.3444 16.5 24.3962 16.5328 24.4308 16.5704ZM12.2513 22C12.6655 22 13.0013 22.3358 13.0013 22.75L13.0014 23.4978H13.7468C14.161 23.4978 14.4968 23.8336 14.4968 24.2478C14.4968 24.662 14.161 24.9978 13.7468 24.9978H13.0014L13.0014 25.7537C13.0015 26.1679 12.6657 26.5037 12.2515 26.5037C11.8373 26.5037 11.5015 26.168 11.5014 25.7538L11.5014 24.9978H10.75C10.3358 24.9978 10 24.662 10 24.2478C10 23.8336 10.3358 23.4978 10.75 23.4978H11.5014L11.5013 22.75C11.5013 22.3358 11.8371 22 12.2513 22ZM16.2513 25.5C16.6655 25.5 17.0013 25.8358 17.0013 26.25L17.0014 26.9978H17.7468C18.161 26.9978 18.4968 27.3336 18.4968 27.7478C18.4968 28.162 18.161 28.4978 17.7468 28.4978H17.0014L17.0014 29.2537C17.0015 29.6679 16.6657 30.0037 16.2515 30.0037C15.8373 30.0037 15.5015 29.668 15.5014 29.2538L15.5014 28.4978H14.75C14.3358 28.4978 14 28.162 14 27.7478C14 27.3336 14.3358 26.9978 14.75 26.9978H15.5014L15.5013 26.25C15.5013 25.8358 15.8371 25.5 16.2513 25.5Z" fill="#1D1D1F"/>
</g>
</svg>
