<svg width="24" height="34" viewBox="0 0 24 34" fill="none" xmlns="http://www.w3.org/2000/svg">
<path d="M16.6519 16.5487L21.2601 12.7095C21.9926 12.0338 22.7644 10.2742 21.6441 9.06229C20.4644 7.78608 18.5124 8.54632 17.739 9.24567L7.72362 16.9313C8.81626 9.21035 3.53557 7.90922 2.01048 8.66649C1.10691 9.11515 1.07667 10.1045 1.3164 10.7434C1.96285 12.4663 3.84963 13.908 3.03263 16.9313C2.53945 18.7562 1.54442 19.812 1.23651 21.3653C0.655895 24.2944 1.29128 26.2999 1.57942 27.1065C2.05943 28.4502 3.88348 31.8155 7.62761 32.6733C12.2358 33.729 15.4558 31.4895 16.6519 30.4657C19.0469 28.416 19.7485 26.3735 20.2041 25.0909C20.6596 23.8083 21.0681 20.9638 18.5486 20.25M16.6519 16.5487C16.6519 16.5487 19.6955 17.7715 18.5486 20.25M16.6519 16.5487C14.3479 15.9728 7.81962 19.716 7.72362 23.0753C7.70749 23.6398 7.87016 25.9386 10.0277 25.8587M18.5486 20.25C14.5399 20.3879 9.92159 23.8431 10.0277 25.8587M10.0277 25.8587C10.1237 27.6823 11.6676 28.1418 12.7158 27.6823C14.0901 27.08 15.0199 25.0909 17.036 24.611M6.43125 3.54838L8.28166 6.75851M11.5199 1V4.70674M16.4929 3.54838L14.6425 6.75851" stroke="#FF564F" stroke-width="1.84309" stroke-linecap="round" stroke-linejoin="round"/>
</svg>
