<svg width="21" height="20" viewBox="0 0 21 20" fill="none" xmlns="http://www.w3.org/2000/svg">
<path d="M17.4172 7.73967C17.2823 6.33133 16.6419 5.0247 15.6203 4.07356C14.5987 3.12242 13.269 2.59467 11.8893 2.59283H10.7782C9.39854 2.59467 8.06876 3.12242 7.04719 4.07356C6.02562 5.0247 5.38518 6.33133 5.25027 7.73967C4.6404 7.78493 4.06974 8.0649 3.65262 8.52348C3.23551 8.98205 3.00274 9.58536 3.00098 10.2125V12.0666C3.00171 12.7272 3.25789 13.3605 3.71331 13.8276C4.16873 14.2947 4.7862 14.5575 5.43026 14.5582H6.8896C7.03693 14.5582 7.17823 14.4982 7.28241 14.3914C7.38659 14.2845 7.44512 14.1396 7.44512 13.9885V8.29065C7.44512 8.13953 7.38659 7.9946 7.28241 7.88775C7.17823 7.78089 7.03693 7.72086 6.8896 7.72086H6.37242C6.50856 6.62033 7.03094 5.60837 7.84185 4.87427C8.65276 4.14018 9.69664 3.73424 10.7782 3.7324H11.8893C12.9708 3.73424 14.0147 4.14018 14.8256 4.87427C15.6365 5.60837 16.1589 6.62033 16.2951 7.72086H15.7779C15.6306 7.72086 15.4893 7.78089 15.3851 7.88775C15.2809 7.9946 15.2224 8.13953 15.2224 8.29065V13.9885C15.2224 14.1396 15.2809 14.2845 15.3851 14.3914C15.4893 14.4982 15.6306 14.5582 15.7779 14.5582H16.2545C16.1317 15.0461 15.8548 15.4784 15.467 15.7877C15.0793 16.0969 14.6025 16.2657 14.1113 16.2676H13.0003V15.6978C13.0003 15.5467 12.9418 15.4018 12.8376 15.2949C12.7334 15.188 12.5921 15.128 12.4448 15.128C12.2974 15.128 12.1562 15.188 12.052 15.2949C11.9478 15.4018 11.8893 15.5467 11.8893 15.6978V16.8374C11.8893 16.9885 11.9478 17.1334 12.052 17.2403C12.1562 17.3471 12.2974 17.4071 12.4448 17.4071H14.1113C14.9012 17.4062 15.665 17.1176 16.2667 16.5928C16.8684 16.068 17.2688 15.3411 17.3967 14.5417C18.0105 14.5013 18.5864 14.2231 19.0078 13.7636C19.4292 13.304 19.6647 12.6975 19.6665 12.0666V10.2125C19.6647 9.58536 19.432 8.98205 19.0149 8.52348C18.5977 8.0649 18.0271 7.78493 17.4172 7.73967ZM6.33408 13.4187H5.43026C5.08073 13.4184 4.7456 13.2758 4.49844 13.0223C4.25129 12.7688 4.11231 12.4251 4.11201 12.0666V10.2125C4.11231 9.85401 4.25129 9.51028 4.49844 9.25678C4.7456 9.00328 5.08073 8.86073 5.43026 8.86043H6.33408V13.4187ZM18.5555 12.0666C18.5552 12.4251 18.4162 12.7688 18.169 13.0223C17.9219 13.2758 17.5868 13.4184 17.2372 13.4187H16.3334V8.86043H17.2372C17.5868 8.86073 17.9219 9.00328 18.169 9.25678C18.4162 9.51028 18.5552 9.85401 18.5555 10.2125V12.0666Z" fill="#1D1D1F" fill-opacity="0.45"/>
</svg>
