<svg width="20" height="20" viewBox="0 0 20 20" fill="none" xmlns="http://www.w3.org/2000/svg">
<path d="M7.69173 7.5H5.99984C5.06642 7.5 4.59936 7.5 4.24284 7.68166C3.92924 7.84144 3.67445 8.09623 3.51466 8.40983C3.33301 8.76635 3.33301 9.23341 3.33301 10.1668V14.8335C3.33301 15.7669 3.33301 16.2334 3.51466 16.5899C3.67445 16.9035 3.92924 17.1587 4.24284 17.3185C4.59901 17.5 5.06552 17.5 5.99712 17.5H14.0023C14.9338 17.5 15.3997 17.5 15.7558 17.3185C16.0694 17.1587 16.3251 16.9035 16.4849 16.5899C16.6663 16.2337 16.6663 15.7679 16.6663 14.8363V10.1641C16.6663 9.23249 16.6663 8.766 16.4849 8.40983C16.3251 8.09623 16.0694 7.84144 15.7558 7.68166C15.3993 7.5 14.9333 7.5 13.9998 7.5H12.3071M7.69173 7.5H12.3071M7.69173 7.5C7.58552 7.5 7.49967 7.4139 7.49967 7.30769V5C7.49967 3.61929 8.61896 2.5 9.99967 2.5C11.3804 2.5 12.4997 3.61929 12.4997 5V7.30769C12.4997 7.4139 12.4133 7.5 12.3071 7.5" stroke="#1D1D1F" stroke-opacity="0.45" stroke-width="1.5" stroke-linecap="round" stroke-linejoin="round"/>
</svg>
