<svg width="21" height="20" viewBox="0 0 21 20" fill="none" xmlns="http://www.w3.org/2000/svg">
<path d="M18.4367 3.45502C17.8638 3.34037 17.2985 3.19036 16.7442 3.00586C16.48 2.92252 16.1842 2.83419 15.8433 2.73336C14.5709 2.35846 13.3328 1.8756 12.1425 1.29002C11.9429 1.19135 11.7231 1.14001 11.5004 1.14001C11.2777 1.14001 11.058 1.19135 10.8583 1.29002C9.66772 1.87546 8.42935 2.35832 7.15668 2.73336C6.81585 2.83419 6.52001 2.92502 6.25584 3.00586C5.70149 3.19036 5.13624 3.34037 4.56334 3.45502C4.22868 3.51675 3.92633 3.6941 3.70913 3.95609C3.49192 4.21807 3.37366 4.54804 3.37501 4.88836V8.77252C3.37523 10.5189 3.8423 12.2335 4.72786 13.7386C5.61342 15.2438 6.88526 16.4849 8.41168 17.3334L10.7908 18.6559C11.0073 18.777 11.2511 18.8406 11.4992 18.8406C11.7472 18.8406 11.9911 18.777 12.2075 18.6559L14.5883 17.3334C16.1148 16.4849 17.3866 15.2438 18.2722 13.7386C19.1577 12.2335 19.6248 10.5189 19.625 8.77252V4.88836C19.6264 4.54804 19.5081 4.21807 19.2909 3.95609C19.0737 3.6941 18.7713 3.51675 18.4367 3.45502Z" fill="#52C41A"/>
<path d="M10.6667 11.4584C10.5846 11.4586 10.5033 11.4425 10.4275 11.411C10.3517 11.3795 10.2829 11.3333 10.225 11.275L8.55837 9.60837C8.44797 9.48989 8.38787 9.33318 8.39072 9.17127C8.39358 9.00935 8.45917 8.85486 8.57368 8.74035C8.68819 8.62584 8.84268 8.56025 9.0046 8.55739C9.16652 8.55453 9.32322 8.61464 9.4417 8.72504L10.6667 9.9492L13.5584 7.05837C13.6768 6.94797 13.8336 6.88787 13.9955 6.89072C14.1574 6.89358 14.3119 6.95917 14.4264 7.07368C14.5409 7.18819 14.6065 7.34268 14.6093 7.5046C14.6122 7.66652 14.5521 7.82322 14.4417 7.9417L11.1084 11.275C11.0506 11.3333 10.9817 11.3795 10.9059 11.411C10.8301 11.4425 10.7488 11.4586 10.6667 11.4584Z" fill="white"/>
</svg>
