<svg width="17" height="16" viewBox="0 0 17 16" fill="none" xmlns="http://www.w3.org/2000/svg">
<path d="M14.8491 2.76399C14.3908 2.67227 13.9386 2.55227 13.4951 2.40466C13.2838 2.33799 13.0471 2.26733 12.7745 2.18666C11.7565 1.88675 10.766 1.50045 9.81381 1.03199C9.65409 0.953052 9.47832 0.911987 9.30015 0.911987C9.12198 0.911987 8.94621 0.953052 8.78648 1.03199C7.83398 1.50035 6.84328 1.88663 5.82515 2.18666C5.55248 2.26733 5.31581 2.33999 5.10448 2.40466C4.66099 2.55227 4.2088 2.67227 3.75048 2.76399C3.48274 2.81338 3.24087 2.95526 3.06711 3.16485C2.89334 3.37443 2.79874 3.63841 2.79981 3.91066V7.01799C2.79999 8.41509 3.17365 9.78674 3.88209 10.9909C4.59054 12.195 5.60802 13.1879 6.82915 13.8667L8.73248 14.9247C8.90562 15.0216 9.10072 15.0725 9.29915 15.0725C9.49757 15.0725 9.69268 15.0216 9.86581 14.9247L11.7705 13.8667C12.9916 13.1879 14.0091 12.195 14.7175 10.9909C15.426 9.78674 15.7996 8.41509 15.7998 7.01799V3.91066C15.8009 3.63841 15.7063 3.37443 15.5325 3.16485C15.3588 2.95526 15.1169 2.81338 14.8491 2.76399Z" fill="#52C41A"/>
<path d="M8.63336 9.16665C8.56769 9.16681 8.50264 9.15393 8.44199 9.12875C8.38133 9.10357 8.32628 9.0666 8.28003 9.01998L6.9467 7.68665C6.85838 7.59186 6.81029 7.4665 6.81258 7.33696C6.81486 7.20743 6.86734 7.08384 6.95895 6.99223C7.05056 6.90062 7.17415 6.84815 7.30368 6.84586C7.43321 6.84358 7.55858 6.89166 7.65336 6.97998L8.63336 7.95931L10.9467 5.64665C11.0415 5.55833 11.1668 5.51024 11.2964 5.51253C11.4259 5.51481 11.5495 5.56729 11.6411 5.6589C11.7327 5.75051 11.7852 5.8741 11.7875 6.00363C11.7898 6.13317 11.7417 6.25853 11.6534 6.35331L8.98669 9.01998C8.94044 9.0666 8.88539 9.10357 8.82474 9.12875C8.76408 9.15393 8.69903 9.16681 8.63336 9.16665Z" fill="white"/>
</svg>
