<svg width="36" height="36" viewBox="0 0 36 36" fill="none" xmlns="http://www.w3.org/2000/svg">
<path d="M0 18C0 8.05888 8.05888 0 18 0C27.9411 0 36 8.05888 36 18C36 27.9411 27.9411 36 18 36C8.05888 36 0 27.9411 0 18Z" fill="#1E1E20"/>
<g clip-path="url(#clip0_1389_1721)">
<path d="M18 10C22.4183 10 26 13.5817 26 18C26 22.0902 22.9303 25.463 18.9692 25.9414V20.4447L21.1334 20.4447L21.5823 18H18.9692V17.1354C18.9692 16.4894 19.0959 16.0423 19.3866 15.7566C19.6773 15.4708 20.1319 15.3466 20.7878 15.3466C20.9538 15.3466 21.1066 15.3483 21.2422 15.3516C21.4394 15.3564 21.6001 15.3647 21.712 15.3764V13.1603C21.6673 13.1479 21.6145 13.1355 21.5554 13.1232C21.4214 13.0955 21.2548 13.0688 21.0757 13.0454C20.7016 12.9964 20.2729 12.9615 19.9729 12.9615C18.7616 12.9615 17.8461 13.2207 17.2071 13.7575C16.4359 14.4053 16.0674 15.4575 16.0674 16.9466V18H14.4177V20.4447H16.0674V25.7644C12.5829 24.8999 10 21.7518 10 18C10 13.5817 13.5817 10 18 10Z" fill="white"/>
</g>
<defs>
<clipPath id="clip0_1389_1721">
<rect width="16" height="16" fill="white" transform="translate(10 10)"/>
</clipPath>
</defs>
</svg>
