<svg width="36" height="36" viewBox="0 0 36 36" fill="none" xmlns="http://www.w3.org/2000/svg">
<path d="M0 18C0 8.05888 8.05888 0 18 0C27.9411 0 36 8.05888 36 18C36 27.9411 27.9411 36 18 36C8.05888 36 0 27.9411 0 18Z" fill="#1E1E20"/>
<path d="M22.2635 14.6814C21.7337 14.6825 21.3029 14.2535 21.3018 13.7237C21.3008 13.1938 21.7298 12.763 22.2598 12.762C22.7899 12.761 23.2207 13.1902 23.2217 13.72C23.2225 14.2498 22.7935 14.6804 22.2635 14.6814Z" fill="white"/>
<path fill-rule="evenodd" clip-rule="evenodd" d="M18.0076 22.1073C15.7394 22.1117 13.8967 20.2766 13.8923 18.0078C13.8879 15.7395 15.7236 13.8965 17.9918 13.8921C20.2606 13.8877 22.1035 15.7239 22.108 17.992C22.1123 20.2608 20.2762 22.1029 18.0076 22.1073ZM17.9947 15.3336C16.5224 15.3362 15.3306 16.5324 15.3332 18.0049C15.3361 19.4777 16.5325 20.6693 18.0048 20.6664C19.4776 20.6636 20.6694 19.4676 20.6665 17.9948C20.6637 16.522 19.4672 15.3307 17.9947 15.3336Z" fill="white"/>
<path fill-rule="evenodd" clip-rule="evenodd" d="M12.7461 10.431C13.2542 10.2319 13.8356 10.0956 14.6868 10.0554C15.5401 10.0144 15.8125 10.0051 17.9846 10.001C20.1572 9.99682 20.4296 10.0051 21.2829 10.043C22.1344 10.0798 22.716 10.214 23.2251 10.411C23.7518 10.614 24.1987 10.8872 24.644 11.3307C25.0893 11.7747 25.3635 12.22 25.569 12.7459C25.7679 13.2545 25.9042 13.8354 25.9446 14.6871C25.9851 15.5402 25.9949 15.8123 25.9991 17.9847C26.0032 20.1568 25.9944 20.4295 25.9571 21.2833C25.92 22.1343 25.786 22.7162 25.589 23.225C25.3855 23.7517 25.1128 24.1986 24.6694 24.6439C24.2259 25.0895 23.78 25.3635 23.2541 25.5693C22.7456 25.7678 22.1647 25.9042 21.3135 25.9449C20.4602 25.9853 20.1878 25.9949 18.0149 25.999C15.8431 26.0032 15.5707 25.9949 14.7174 25.9573C13.8659 25.92 13.284 25.786 12.7752 25.5892C12.2485 25.3855 11.8016 25.1131 11.3563 24.6693C10.9107 24.2256 10.6363 23.78 10.431 23.2541C10.2319 22.7458 10.0961 22.1646 10.0554 21.3137C10.0147 20.4601 10.0051 20.1874 10.001 18.0153C9.9968 15.8429 10.0054 15.5707 10.0427 14.7174C10.0803 13.8657 10.2138 13.284 10.4108 12.7747C10.6142 12.2483 10.8869 11.8017 11.3309 11.3561C11.7744 10.9108 12.2202 10.636 12.7461 10.431ZM13.2944 24.2453C13.5766 24.3539 14.0002 24.4835 14.7801 24.5174C15.624 24.554 15.8768 24.562 18.0123 24.5579C20.1486 24.554 20.4014 24.5449 21.2451 24.5052C22.0242 24.4682 22.4478 24.337 22.7292 24.2271C23.1028 24.0812 23.3687 23.9067 23.6481 23.6271C23.9275 23.3463 24.1004 23.0796 24.2451 22.7061C24.3539 22.4236 24.4833 21.9998 24.5172 21.2198C24.5543 20.3764 24.562 20.1234 24.5579 17.9873C24.554 15.8517 24.5449 15.5987 24.5048 14.755C24.468 13.9756 24.3371 13.5521 24.2269 13.2708C24.081 12.8968 23.9071 12.6314 23.6266 12.3517C23.3461 12.072 23.0794 11.8996 22.7054 11.755C22.4236 11.6459 21.9996 11.5168 21.2202 11.4828C20.3762 11.4458 20.1232 11.4382 17.9872 11.4424C15.8516 11.4465 15.5989 11.4551 14.7552 11.495C13.9755 11.5321 13.5525 11.663 13.2705 11.7731C12.8972 11.9191 12.6313 12.0925 12.3516 12.3732C12.0725 12.6539 11.8996 12.9201 11.755 13.2944C11.6466 13.5764 11.5162 14.0005 11.4828 14.7799C11.446 15.6239 11.4382 15.8769 11.4424 18.0124C11.4463 20.1485 11.4553 20.4015 11.495 21.2447C11.5315 22.0247 11.6635 22.4477 11.7731 22.7299C11.919 23.1029 12.093 23.3689 12.3732 23.6486C12.6539 23.9272 12.9206 24.1006 13.2944 24.2453Z" fill="white"/>
</svg>
